HIERARCHY
ROOT hip
{
  OFFSET 0 0 0
  CHANNELS 6 Xposition Yposition Zposition Zrotation Yrotation Xrotation
  JOINT abdomen
  {
    OFFSET 0 20.6881 -0.73152
    CHANNELS 3 Zrotation Xrotation Yrotation
    JOINT chest
    {
      OFFSET 0 11.7043 -0.48768
      CHANNELS 3 Zrotation Xrotation Yrotation
      JOINT neck
      {
        OFFSET 0 22.1894 -2.19456
        CHANNELS 3 Zrotation Xrotation Yrotation
        JOINT head
        {
          OFFSET -0.24384 7.07133 1.2192
          CHANNELS 3 Zrotation Xrotation Yrotation
          JOINT leftEye
          {
            OFFSET 4.14528 8.04674 8.04672
            CHANNELS 3 Zrotation Xrotation Yrotation
            End Site
            {
              OFFSET 1 0 0
            }
          }
          JOINT rightEye
          {
            OFFSET -3.6576 8.04674 8.04672
            CHANNELS 3 Zrotation Xrotation Yrotation
            End Site
            {
              OFFSET 1 0 0
            }
          }
        }
      }
      JOINT rCollar
      {
        OFFSET -2.68224 19.2634 -4.8768
        CHANNELS 3 Zrotation Xrotation Yrotation
        JOINT rShldr
        {
          OFFSET -8.77824 -1.95073 1.46304
          CHANNELS 3 Zrotation Xrotation Yrotation
          JOINT rForeArm
          {
            OFFSET -28.1742 -1.7115 0.48768
            CHANNELS 3 Zrotation Xrotation Yrotation
            JOINT rHand
            {
              OFFSET -22.5879 0.773209 7.07136
              CHANNELS 3 Zrotation Xrotation Yrotation
              JOINT rThumb1
              {
                OFFSET -1.2192 -0.487915 3.41376
                CHANNELS 3 Zrotation Xrotation Yrotation
                JOINT rThumb2
                {
                  OFFSET -3.37035 -0.52449 3.41376
                  CHANNELS 3 Zrotation Xrotation Yrotation
                  End Site
                  {
                    OFFSET -1.78271 -1.18214 1.43049
                  }
                }
              }
              JOINT rIndex1
              {
                OFFSET -7.75947 0.938293 5.60832
                CHANNELS 3 Zrotation Xrotation Yrotation
                JOINT rIndex2
                {
                  OFFSET -2.54057 -0.884171 1.56538
                  CHANNELS 3 Zrotation Xrotation Yrotation
                  End Site
                  {
                    OFFSET -1.62519 -0.234802 1.16502
                  }
                }
              }
              JOINT rMid1
              {
                OFFSET -8.24714 1.18213 3.41376
                CHANNELS 3 Zrotation Xrotation Yrotation
                JOINT rMid2
                {
                  OFFSET -3.10165 -0.590103 1.0647
                  CHANNELS 3 Zrotation Xrotation Yrotation
                  End Site
                  {
                    OFFSET -2.48547 -0.328903 0.83742
                  }
                }
              }
              JOINT rRing1
              {
                OFFSET -8.82822 0.546677 1.51678
                CHANNELS 3 Zrotation Xrotation Yrotation
                JOINT rRing2
                {
                  OFFSET -2.60934 -0.819778 -0.0198488
                  CHANNELS 3 Zrotation Xrotation Yrotation
                  End Site
                  {
                    OFFSET -2.33842 -0.294052 0.168128
                  }
                }
              }
              JOINT rPinky1
              {
                OFFSET -8.27202 -0.0477905 -0.4584
                CHANNELS 3 Zrotation Xrotation Yrotation
                JOINT rPinky2
                {
                  OFFSET -1.82734 -0.647385 -0.700984
                  CHANNELS 3 Zrotation Xrotation Yrotation
                  End Site
                  {
                    OFFSET -1.69225 -0.51767 -0.607171
                  }
                }
              }
            }
          }
        }
      }
      JOINT lCollar
      {
        OFFSET 2.68224 19.2634 -4.8768
        CHANNELS 3 Zrotation Xrotation Yrotation
        JOINT lShldr
        {
          OFFSET 8.77824 -1.95073 1.46304
          CHANNELS 3 Zrotation Xrotation Yrotation
          JOINT lForeArm
          {
            OFFSET 28.1742 -1.7115 0.48768
            CHANNELS 3 Zrotation Xrotation Yrotation
            JOINT lHand
            {
              OFFSET 22.5879 0.773209 7.07136
              CHANNELS 3 Zrotation Xrotation Yrotation
              JOINT lThumb1
              {
                OFFSET 1.2192 -0.487915 3.41376
                CHANNELS 3 Zrotation Xrotation Yrotation
                JOINT lThumb2
                {
                  OFFSET 3.37035 -0.52449 3.41376
                  CHANNELS 3 Zrotation Xrotation Yrotation
                  End Site
                  {
                    OFFSET 1.78271 -1.18214 1.43049
                  }
                }
              }
              JOINT lIndex1
              {
                OFFSET 7.75947 0.938293 5.60832
                CHANNELS 3 Zrotation Xrotation Yrotation
                JOINT lIndex2
                {
                  OFFSET 2.54057 -0.884171 1.56538
                  CHANNELS 3 Zrotation Xrotation Yrotation
                  End Site
                  {
                    OFFSET 1.62519 -0.234802 1.16502
                  }
                }
              }
              JOINT lMid1
              {
                OFFSET 8.24714 1.18213 3.41376
                CHANNELS 3 Zrotation Xrotation Yrotation
                JOINT lMid2
                {
                  OFFSET 3.10165 -0.590103 1.0647
                  CHANNELS 3 Zrotation Xrotation Yrotation
                  End Site
                  {
                    OFFSET 2.48547 -0.328903 0.83742
                  }
                }
              }
              JOINT lRing1
              {
                OFFSET 8.82822 0.546677 1.51678
                CHANNELS 3 Zrotation Xrotation Yrotation
                JOINT lRing2
                {
                  OFFSET 2.60934 -0.819778 -0.0198488
                  CHANNELS 3 Zrotation Xrotation Yrotation
                  End Site
                  {
                    OFFSET 2.33842 -0.294052 0.168128
                  }
                }
              }
              JOINT lPinky1
              {
                OFFSET 8.27202 -0.0477905 -0.4584
                CHANNELS 3 Zrotation Xrotation Yrotation
                JOINT lPinky2
                {
                  OFFSET 1.82734 -0.647385 -0.700984
                  CHANNELS 3 Zrotation Xrotation Yrotation
                  End Site
                  {
                    OFFSET 1.69225 -0.51767 -0.607171
                  }
                }
              }
            }
          }
        }
      }
    }
  }
  JOINT rButtock
  {
    OFFSET -8.77824 4.35084 1.2192
    CHANNELS 3 Zrotation Xrotation Yrotation
    JOINT rThigh
    {
      OFFSET 0 -1.70687 -2.19456
      CHANNELS 3 Zrotation Xrotation Yrotation
      JOINT rShin
      {
        OFFSET 0 -36.8199 0.73152
        CHANNELS 3 Zrotation Xrotation Yrotation
        JOINT rFoot
        {
          OFFSET 0.73152 -45.1104 -5.12064
          CHANNELS 3 Zrotation Xrotation Yrotation
          End Site
          {
            OFFSET -1.1221 -3.69964 12.103
          }
        }
      }
    }
  }
  JOINT lButtock
  {
    OFFSET 8.77824 4.35084 1.2192
    CHANNELS 3 Zrotation Xrotation Yrotation
    JOINT lThigh
    {
      OFFSET 0 -1.70687 -2.19456
      CHANNELS 3 Zrotation Xrotation Yrotation
      JOINT lShin
      {
        OFFSET 0 -36.8199 0.73152
        CHANNELS 3 Zrotation Xrotation Yrotation
        JOINT lFoot
        {
          OFFSET -0.73152 -45.1104 -5.12064
          CHANNELS 3 Zrotation Xrotation Yrotation
          End Site
          {
            OFFSET 1.1221 -3.69964 12.103
          }
        }
      }
    }
  }
}
MOTION
Frames:	4
Frame Time:	0.00833333
66.0086 82.976 59.059 5.1424 -53.8053 -3.7537 0.856049 10.8531 2.20303 0.457422 -4.91514 0.797571 -13.2692 -1.27081 -8.66086 19.042 7.44761 -14.9441 -0.0 0.0 0.0 -0.0 0.0 0.0 3.36062e-15 -1.12436e-14 -1.63387e-13 79.9239 23.493 3.22182 -19.2444 -12.0899 36.8762 -0.00160865 1.14403 0.160805 1.14152e-09 -2.12008e-09 -9.76335e-10 1.97337e-09 -3.67339e-09 -1.69669e-09 1.14152e-09 -2.12007e-09 -9.76346e-10 7.73091 5.47488 0.417314 1.14152e-09 -2.12007e-09 -9.76337e-10 2.90554 0.965183 0.102902 1.14152e-09 -2.12007e-09 -9.76338e-10 10.2786 0.731801 0.0259123 1.14151e-09 -2.12007e-09 -9.76337e-10 2.22167 -0.733487 -0.20892 3.19762e-15 -1.12566e-14 -1.63679e-13 -82.4047 18.8451 5.34963 14.0907 -7.02784 -25.7366 0.147757 10.9023 -1.55111 1.15216e-09 -2.41285e-09 -6.25989e-10 1.98607e-09 -4.19497e-09 -1.09629e-09 1.15215e-09 -2.41285e-09 -6.25976e-10 -7.73091 5.47488 -0.417314 1.15216e-09 -2.41285e-09 -6.25992e-10 -2.90554 0.965183 -0.102902 1.15216e-09 -2.41285e-09 -6.2599e-10 -10.2786 0.731801 -0.0259123 1.15216e-09 -2.41285e-09 -6.25998e-10 -2.22167 -0.733487 0.20892 -2.03217e-16 0.0 -3.88251e-19 12.1419 -12.1091 -3.7336 -0.0538175 23.729 0.138616 -1.34801 -9.00431 -3.31807 2.03217e-16 0.0 3.88251e-19 6.07565 -19.1697 -0.72006 1.10729 60.0728 -1.40669 0.442053 6.09526 -6.1463
65.5974 82.9461 59.2446 5.1953 -55.8498 -3.7942 0.863258 10.8566 2.38039 0.539656 -5.00675 0.852768 -13.1621 -1.07595 -8.49393 18.7465 7.38003 -14.669 -0.0 0.0 0.0 -0.0 0.0 0.0 -9.14978e-15 7.416e-15 2.25207e-13 79.7126 23.9451 3.41647 -19.284 -12.1369 36.9693 -0.00153638 1.11842 0.157204 -7.73148e-10 -3.74756e-10 -4.535e-10 -1.33765e-09 -6.50435e-10 -7.84881e-10 -7.73143e-10 -3.74756e-10 -4.53509e-10 7.73091 5.47488 0.417314 -7.73149e-10 -3.74755e-10 -4.53501e-10 2.90554 0.965183 0.102902 -7.73142e-10 -3.74755e-10 -4.53501e-10 10.2786 0.731801 0.0259123 -7.73153e-10 -3.74756e-10 -4.53499e-10 2.22167 -0.733487 -0.20892 -9.26009e-15 7.40529e-15 2.24931e-13 -82.5952 19.1063 5.72805 14.1154 -7.04797 -25.7865 0.138146 10.5528 -1.50019 -6.54847e-10 1.0267e-09 4.27533e-10 -1.12814e-09 1.78154e-09 7.44358e-10 -6.54854e-10 1.0267e-09 4.27545e-10 -7.73091 5.47488 -0.417314 -6.54849e-10 1.02669e-09 4.27527e-10 -2.90554 0.965183 -0.102902 -6.5485e-10 1.0267e-09 4.27532e-10 -10.2786 0.731801 -0.0259123 -6.54847e-10 1.0267e-09 4.27524e-10 -2.22167 -0.733487 0.20892 -2.03217e-16 0.0 -3.88251e-19 12.2784 -11.5963 -3.05062 -0.0507572 23.6751 0.148175 -1.11509 -9.24505 -2.22153 2.03217e-16 0.0 3.88251e-19 6.07844 -19.5098 -1.11428 1.11447 60.1727 -1.41113 0.402017 5.50194 -4.95451
65.167 82.9369 59.4686 5.1634 -57.7209 -3.8589 0.876667 10.8666 2.54568 0.614231 -5.11595 0.903999 -13.0805 -0.897529 -8.3252 18.4748 7.33725 -14.3862 -0.0 0.0 0.0 -0.0 0.0 0.0 -2.2142e-14 2.03261e-14 5.72848e-13 79.5061 24.4091 3.60594 -19.3143 -12.1731 37.0404 -0.00143642 1.08193 0.152074 -2.44369e-09 1.23304e-09 4.53924e-11 -4.2264e-09 2.13438e-09 8.47499e-11 -2.44369e-09 1.23304e-09 4.53853e-11 7.73091 5.47488 0.417314 -2.44369e-09 1.23304e-09 4.53917e-11 2.90554 0.965183 0.102902 -2.44368e-09 1.23304e-09 4.53922e-11 10.2786 0.731801 0.0259123 -2.44369e-09 1.23304e-09 4.53961e-11 2.22167 -0.733487 -0.20892 -2.21942e-14 2.03182e-14 5.72588e-13 -82.7656 19.3618 6.11158 14.143 -7.07042 -25.8422 0.128632 10.1833 -1.44653 -2.23678e-09 4.05441e-09 1.36797e-09 -3.85423e-09 7.04249e-09 2.38719e-09 -2.23679e-09 4.05441e-09 1.36799e-09 -7.73091 5.47488 -0.417314 -2.23678e-09 4.0544e-09 1.36797e-09 -2.90554 0.965183 -0.102902 -2.23678e-09 4.05441e-09 1.36797e-09 -10.2786 0.731801 -0.0259123 -2.23678e-09 4.05441e-09 1.36797e-09 -2.22167 -0.733487 0.20892 -2.03217e-16 0.0 -3.88251e-19 12.4033 -11.0961 -2.35816 -0.0480429 23.6366 0.158589 -0.879999 -9.46432 -1.14897 2.03217e-16 0.0 3.88251e-19 6.09276 -19.8387 -1.47358 1.11659 60.1984 -1.41155 0.384233 4.8693 -3.82319
64.7882 82.9333 59.7413 5.3399 -59.3451 -4.0682 0.905179 10.8594 2.68835 0.626316 -5.1959 0.945467 -13.0984 -0.791288 -8.21959 18.4031 7.35139 -14.2102 -0.0 0.0 0.0 -0.0 0.0 0.0 -3.40138e-14 1.39924e-14 7.06282e-13 79.3602 24.8058 3.81821 -19.3371 -12.2003 37.094 -0.00134848 1.04849 0.147373 -2.96101e-09 2.01742e-09 2.99564e-10 -5.12091e-09 3.49294e-09 5.26786e-10 -2.96101e-09 2.01742e-09 2.99557e-10 7.73091 5.47488 0.417314 -2.96101e-09 2.01742e-09 2.99564e-10 2.90554 0.965183 0.102902 -2.96101e-09 2.01742e-09 2.99565e-10 10.2786 0.731801 0.0259123 -2.96102e-09 2.01742e-09 2.9957e-10 2.22167 -0.733487 -0.20892 -3.40225e-14 1.39868e-14 7.06033e-13 -82.8641 19.581 6.44587 14.1673 -7.09027 -25.8914 0.121461 9.88892 -1.4039 -2.74016e-09 5.03326e-09 1.77537e-09 -4.72047e-09 8.744e-09 3.09715e-09 -2.74016e-09 5.03326e-09 1.77538e-09 -7.73091 5.47488 -0.417314 -2.74017e-09 5.03326e-09 1.77536e-09 -2.90554 0.965183 -0.102902 -2.74016e-09 5.03326e-09 1.77536e-09 -10.2786 0.731801 -0.0259123 -2.74016e-09 5.03327e-09 1.77536e-09 -2.22167 -0.733487 0.20892 -2.03217e-16 0.0 -3.88251e-19 12.5117 -10.6464 -1.69917 -0.0456962 23.6204 0.170058 -0.655726 -9.63665 -0.154251 2.03217e-16 0.0 3.88251e-19 6.09946 -20.2205 -1.82591 1.11474 60.1694 -1.40962 0.39068 4.33512 -2.83531
